<mxfile host="Electron" modified="2024-04-25T20:07:09.866Z" agent="Mozilla/5.0 (Windows NT 10.0; Win64; x64) AppleWebKit/537.36 (KHTML, like Gecko) draw.io/24.2.5 Chrome/120.0.6099.109 Electron/28.1.0 Safari/537.36" etag="BbCc3Lj21kBuaujhT8vo" version="24.2.5" type="device" pages="4">
  <diagram name="Login Check/ Storage" id="9tpw70X7Q1VtCu32FNCy">
    <mxGraphModel dx="1434" dy="956" grid="1" gridSize="10" guides="1" tooltips="1" connect="1" arrows="1" fold="1" page="1" pageScale="1" pageWidth="827" pageHeight="1169" math="0" shadow="0">
      <root>
        <mxCell id="0Hoveio9KSXY4x-1HRcn-0" />
        <mxCell id="0Hoveio9KSXY4x-1HRcn-1" parent="0Hoveio9KSXY4x-1HRcn-0" />
        <mxCell id="dm8yeIsYwI0P7qoBIj0t-7" value="" style="edgeStyle=orthogonalEdgeStyle;rounded=0;orthogonalLoop=1;jettySize=auto;html=1;" parent="0Hoveio9KSXY4x-1HRcn-1" source="0Hoveio9KSXY4x-1HRcn-3" target="dm8yeIsYwI0P7qoBIj0t-5" edge="1">
          <mxGeometry relative="1" as="geometry" />
        </mxCell>
        <mxCell id="0Hoveio9KSXY4x-1HRcn-3" value="Start" style="strokeWidth=2;html=1;shape=mxgraph.flowchart.start_1;whiteSpace=wrap;" parent="0Hoveio9KSXY4x-1HRcn-1" vertex="1">
          <mxGeometry x="10" y="10" width="100" height="60" as="geometry" />
        </mxCell>
        <mxCell id="0Hoveio9KSXY4x-1HRcn-4" style="edgeStyle=orthogonalEdgeStyle;rounded=0;orthogonalLoop=1;jettySize=auto;html=1;entryX=0;entryY=0.5;entryDx=0;entryDy=0;" parent="0Hoveio9KSXY4x-1HRcn-1" edge="1">
          <mxGeometry relative="1" as="geometry">
            <Array as="points">
              <mxPoint x="470" y="10" />
            </Array>
            <mxPoint x="260" y="10" as="sourcePoint" />
          </mxGeometry>
        </mxCell>
        <mxCell id="bce6IL9_vLdNjxIvjYd0-7" value="yes" style="edgeStyle=orthogonalEdgeStyle;rounded=0;orthogonalLoop=1;jettySize=auto;html=1;entryX=0.5;entryY=0;entryDx=0;entryDy=0;" edge="1" parent="0Hoveio9KSXY4x-1HRcn-1" source="0Hoveio9KSXY4x-1HRcn-16" target="bce6IL9_vLdNjxIvjYd0-4">
          <mxGeometry relative="1" as="geometry" />
        </mxCell>
        <mxCell id="bce6IL9_vLdNjxIvjYd0-14" value="no" style="edgeStyle=orthogonalEdgeStyle;rounded=0;orthogonalLoop=1;jettySize=auto;html=1;entryX=0;entryY=0.5;entryDx=0;entryDy=0;" edge="1" parent="0Hoveio9KSXY4x-1HRcn-1" source="0Hoveio9KSXY4x-1HRcn-16" target="bce6IL9_vLdNjxIvjYd0-4">
          <mxGeometry relative="1" as="geometry" />
        </mxCell>
        <mxCell id="0Hoveio9KSXY4x-1HRcn-16" value="is the passcode 12 characters long?" style="rhombus;whiteSpace=wrap;html=1;" parent="0Hoveio9KSXY4x-1HRcn-1" vertex="1">
          <mxGeometry x="170" y="110" width="80" height="80" as="geometry" />
        </mxCell>
        <mxCell id="bce6IL9_vLdNjxIvjYd0-6" value="yes" style="edgeStyle=orthogonalEdgeStyle;rounded=0;orthogonalLoop=1;jettySize=auto;html=1;entryX=0.5;entryY=0;entryDx=0;entryDy=0;" edge="1" parent="0Hoveio9KSXY4x-1HRcn-1" source="0Hoveio9KSXY4x-1HRcn-19" target="bce6IL9_vLdNjxIvjYd0-4">
          <mxGeometry relative="1" as="geometry" />
        </mxCell>
        <mxCell id="bce6IL9_vLdNjxIvjYd0-13" value="no" style="edgeStyle=orthogonalEdgeStyle;rounded=0;orthogonalLoop=1;jettySize=auto;html=1;entryX=1;entryY=0.5;entryDx=0;entryDy=0;" edge="1" parent="0Hoveio9KSXY4x-1HRcn-1" source="0Hoveio9KSXY4x-1HRcn-19" target="bce6IL9_vLdNjxIvjYd0-4">
          <mxGeometry relative="1" as="geometry" />
        </mxCell>
        <mxCell id="0Hoveio9KSXY4x-1HRcn-19" value="is the username 8 characters long" style="rhombus;whiteSpace=wrap;html=1;" parent="0Hoveio9KSXY4x-1HRcn-1" vertex="1">
          <mxGeometry x="270" y="110" width="80" height="80" as="geometry" />
        </mxCell>
        <mxCell id="bce6IL9_vLdNjxIvjYd0-9" value="" style="edgeStyle=orthogonalEdgeStyle;rounded=0;orthogonalLoop=1;jettySize=auto;html=1;" edge="1" parent="0Hoveio9KSXY4x-1HRcn-1" source="0Hoveio9KSXY4x-1HRcn-22" target="dm8yeIsYwI0P7qoBIj0t-5">
          <mxGeometry relative="1" as="geometry">
            <Array as="points">
              <mxPoint x="360" y="30" />
              <mxPoint x="360" y="30" />
            </Array>
          </mxGeometry>
        </mxCell>
        <mxCell id="0Hoveio9KSXY4x-1HRcn-22" value="show requirments as red, met as green" style="whiteSpace=wrap;html=1;" parent="0Hoveio9KSXY4x-1HRcn-1" vertex="1">
          <mxGeometry x="370" width="160" height="110" as="geometry" />
        </mxCell>
        <mxCell id="0Hoveio9KSXY4x-1HRcn-25" value="are both &quot;yes&quot;?" style="rhombus;whiteSpace=wrap;html=1;" parent="0Hoveio9KSXY4x-1HRcn-1" vertex="1">
          <mxGeometry x="590" y="720" width="80" height="80" as="geometry" />
        </mxCell>
        <mxCell id="bce6IL9_vLdNjxIvjYd0-23" value="" style="edgeStyle=orthogonalEdgeStyle;rounded=0;orthogonalLoop=1;jettySize=auto;html=1;" edge="1" parent="0Hoveio9KSXY4x-1HRcn-1" source="0Hoveio9KSXY4x-1HRcn-30" target="0Hoveio9KSXY4x-1HRcn-32">
          <mxGeometry relative="1" as="geometry" />
        </mxCell>
        <mxCell id="0Hoveio9KSXY4x-1HRcn-30" value="save username and passcode in list" style="whiteSpace=wrap;html=1;" parent="0Hoveio9KSXY4x-1HRcn-1" vertex="1">
          <mxGeometry y="310" width="120" height="60" as="geometry" />
        </mxCell>
        <mxCell id="bce6IL9_vLdNjxIvjYd0-24" value="" style="edgeStyle=orthogonalEdgeStyle;rounded=0;orthogonalLoop=1;jettySize=auto;html=1;" edge="1" parent="0Hoveio9KSXY4x-1HRcn-1" source="0Hoveio9KSXY4x-1HRcn-44" target="0Hoveio9KSXY4x-1HRcn-39">
          <mxGeometry relative="1" as="geometry" />
        </mxCell>
        <mxCell id="0Hoveio9KSXY4x-1HRcn-32" value="show dropdown for security question" style="whiteSpace=wrap;html=1;" parent="0Hoveio9KSXY4x-1HRcn-1" vertex="1">
          <mxGeometry y="400" width="120" height="60" as="geometry" />
        </mxCell>
        <mxCell id="bce6IL9_vLdNjxIvjYd0-30" value="" style="edgeStyle=orthogonalEdgeStyle;rounded=0;orthogonalLoop=1;jettySize=auto;html=1;" edge="1" parent="0Hoveio9KSXY4x-1HRcn-1" source="0Hoveio9KSXY4x-1HRcn-36" target="0Hoveio9KSXY4x-1HRcn-42">
          <mxGeometry relative="1" as="geometry" />
        </mxCell>
        <mxCell id="0Hoveio9KSXY4x-1HRcn-36" value="show answer input area" style="whiteSpace=wrap;html=1;" parent="0Hoveio9KSXY4x-1HRcn-1" vertex="1">
          <mxGeometry y="750" width="120" height="60" as="geometry" />
        </mxCell>
        <mxCell id="bce6IL9_vLdNjxIvjYd0-26" value="yes" style="edgeStyle=orthogonalEdgeStyle;rounded=0;orthogonalLoop=1;jettySize=auto;html=1;" edge="1" parent="0Hoveio9KSXY4x-1HRcn-1" source="0Hoveio9KSXY4x-1HRcn-39" target="0Hoveio9KSXY4x-1HRcn-36">
          <mxGeometry relative="1" as="geometry" />
        </mxCell>
        <mxCell id="bce6IL9_vLdNjxIvjYd0-28" value="no" style="edgeStyle=orthogonalEdgeStyle;rounded=0;orthogonalLoop=1;jettySize=auto;html=1;" edge="1" parent="0Hoveio9KSXY4x-1HRcn-1" source="0Hoveio9KSXY4x-1HRcn-39" target="bce6IL9_vLdNjxIvjYd0-27">
          <mxGeometry relative="1" as="geometry" />
        </mxCell>
        <mxCell id="0Hoveio9KSXY4x-1HRcn-39" value="has a question been selected" style="rhombus;whiteSpace=wrap;html=1;" parent="0Hoveio9KSXY4x-1HRcn-1" vertex="1">
          <mxGeometry y="590" width="140" height="120" as="geometry" />
        </mxCell>
        <mxCell id="bce6IL9_vLdNjxIvjYd0-31" value="yes" style="edgeStyle=orthogonalEdgeStyle;rounded=0;orthogonalLoop=1;jettySize=auto;html=1;entryX=0.5;entryY=0;entryDx=0;entryDy=0;" edge="1" parent="0Hoveio9KSXY4x-1HRcn-1" source="0Hoveio9KSXY4x-1HRcn-42" target="0Hoveio9KSXY4x-1HRcn-51">
          <mxGeometry relative="1" as="geometry" />
        </mxCell>
        <mxCell id="0Hoveio9KSXY4x-1HRcn-42" value="is answer at least 5 characters" style="rhombus;whiteSpace=wrap;html=1;" parent="0Hoveio9KSXY4x-1HRcn-1" vertex="1">
          <mxGeometry y="850" width="100" height="100" as="geometry" />
        </mxCell>
        <mxCell id="dm8yeIsYwI0P7qoBIj0t-1" value="" style="edgeStyle=orthogonalEdgeStyle;rounded=0;orthogonalLoop=1;jettySize=auto;html=1;" parent="0Hoveio9KSXY4x-1HRcn-1" source="0Hoveio9KSXY4x-1HRcn-51" target="dm8yeIsYwI0P7qoBIj0t-0" edge="1">
          <mxGeometry relative="1" as="geometry" />
        </mxCell>
        <mxCell id="0Hoveio9KSXY4x-1HRcn-51" value="add question and answer to list" style="whiteSpace=wrap;html=1;" parent="0Hoveio9KSXY4x-1HRcn-1" vertex="1">
          <mxGeometry y="990" width="120" height="79" as="geometry" />
        </mxCell>
        <mxCell id="0Hoveio9KSXY4x-1HRcn-52" value="" style="edgeStyle=orthogonalEdgeStyle;rounded=0;orthogonalLoop=1;jettySize=auto;html=1;" parent="0Hoveio9KSXY4x-1HRcn-1" edge="1">
          <mxGeometry relative="1" as="geometry">
            <mxPoint x="430" y="1139" as="targetPoint" />
          </mxGeometry>
        </mxCell>
        <mxCell id="0Hoveio9KSXY4x-1HRcn-54" value="" style="edgeStyle=orthogonalEdgeStyle;rounded=0;orthogonalLoop=1;jettySize=auto;html=1;" parent="0Hoveio9KSXY4x-1HRcn-1" edge="1">
          <mxGeometry relative="1" as="geometry">
            <mxPoint x="590" y="1080" as="targetPoint" />
          </mxGeometry>
        </mxCell>
        <mxCell id="0Hoveio9KSXY4x-1HRcn-56" value="" style="edgeStyle=orthogonalEdgeStyle;rounded=0;orthogonalLoop=1;jettySize=auto;html=1;" parent="0Hoveio9KSXY4x-1HRcn-1" edge="1">
          <mxGeometry relative="1" as="geometry">
            <mxPoint x="310" y="1129" as="targetPoint" />
          </mxGeometry>
        </mxCell>
        <mxCell id="dm8yeIsYwI0P7qoBIj0t-0" value="end" style="shape=ellipse;html=1;dashed=0;whiteSpace=wrap;aspect=fixed;strokeWidth=5;perimeter=ellipsePerimeter;" parent="0Hoveio9KSXY4x-1HRcn-1" vertex="1">
          <mxGeometry x="270" y="979.5" width="60" height="60" as="geometry" />
        </mxCell>
        <mxCell id="dm8yeIsYwI0P7qoBIj0t-9" value="" style="edgeStyle=orthogonalEdgeStyle;rounded=0;orthogonalLoop=1;jettySize=auto;html=1;" parent="0Hoveio9KSXY4x-1HRcn-1" source="dm8yeIsYwI0P7qoBIj0t-5" target="0Hoveio9KSXY4x-1HRcn-16" edge="1">
          <mxGeometry relative="1" as="geometry" />
        </mxCell>
        <mxCell id="dm8yeIsYwI0P7qoBIj0t-10" style="edgeStyle=orthogonalEdgeStyle;rounded=0;orthogonalLoop=1;jettySize=auto;html=1;" parent="0Hoveio9KSXY4x-1HRcn-1" source="dm8yeIsYwI0P7qoBIj0t-5" target="0Hoveio9KSXY4x-1HRcn-19" edge="1">
          <mxGeometry relative="1" as="geometry" />
        </mxCell>
        <mxCell id="dm8yeIsYwI0P7qoBIj0t-5" value="ask for passcode/ user name" style="whiteSpace=wrap;html=1;" parent="0Hoveio9KSXY4x-1HRcn-1" vertex="1">
          <mxGeometry x="170" width="170" height="60" as="geometry" />
        </mxCell>
        <mxCell id="bce6IL9_vLdNjxIvjYd0-15" value="no" style="edgeStyle=orthogonalEdgeStyle;rounded=0;orthogonalLoop=1;jettySize=auto;html=1;" edge="1" parent="0Hoveio9KSXY4x-1HRcn-1" source="bce6IL9_vLdNjxIvjYd0-4" target="0Hoveio9KSXY4x-1HRcn-22">
          <mxGeometry relative="1" as="geometry">
            <Array as="points">
              <mxPoint x="450" y="350" />
            </Array>
          </mxGeometry>
        </mxCell>
        <mxCell id="bce6IL9_vLdNjxIvjYd0-22" value="yes" style="edgeStyle=orthogonalEdgeStyle;rounded=0;orthogonalLoop=1;jettySize=auto;html=1;entryX=1;entryY=0.75;entryDx=0;entryDy=0;" edge="1" parent="0Hoveio9KSXY4x-1HRcn-1" source="bce6IL9_vLdNjxIvjYd0-4" target="0Hoveio9KSXY4x-1HRcn-30">
          <mxGeometry relative="1" as="geometry">
            <Array as="points">
              <mxPoint x="168" y="350" />
              <mxPoint x="168" y="355" />
            </Array>
          </mxGeometry>
        </mxCell>
        <mxCell id="bce6IL9_vLdNjxIvjYd0-4" value="are both yes" style="rhombus;whiteSpace=wrap;html=1;" vertex="1" parent="0Hoveio9KSXY4x-1HRcn-1">
          <mxGeometry x="215" y="275" width="80" height="80" as="geometry" />
        </mxCell>
        <mxCell id="bce6IL9_vLdNjxIvjYd0-25" value="" style="edgeStyle=orthogonalEdgeStyle;rounded=0;orthogonalLoop=1;jettySize=auto;html=1;" edge="1" parent="0Hoveio9KSXY4x-1HRcn-1" source="0Hoveio9KSXY4x-1HRcn-32" target="0Hoveio9KSXY4x-1HRcn-44">
          <mxGeometry relative="1" as="geometry">
            <mxPoint x="60" y="460" as="sourcePoint" />
            <mxPoint x="80" y="570" as="targetPoint" />
          </mxGeometry>
        </mxCell>
        <mxCell id="0Hoveio9KSXY4x-1HRcn-44" value="select question" style="whiteSpace=wrap;html=1;" parent="0Hoveio9KSXY4x-1HRcn-1" vertex="1">
          <mxGeometry y="500" width="120" height="60" as="geometry" />
        </mxCell>
        <mxCell id="bce6IL9_vLdNjxIvjYd0-27" value="show error/ re-requrest question" style="whiteSpace=wrap;html=1;" vertex="1" parent="0Hoveio9KSXY4x-1HRcn-1">
          <mxGeometry x="190" y="620" width="120" height="60" as="geometry" />
        </mxCell>
        <mxCell id="bce6IL9_vLdNjxIvjYd0-29" style="edgeStyle=orthogonalEdgeStyle;rounded=0;orthogonalLoop=1;jettySize=auto;html=1;entryX=0.992;entryY=0.367;entryDx=0;entryDy=0;entryPerimeter=0;" edge="1" parent="0Hoveio9KSXY4x-1HRcn-1" source="bce6IL9_vLdNjxIvjYd0-27" target="0Hoveio9KSXY4x-1HRcn-44">
          <mxGeometry relative="1" as="geometry">
            <Array as="points">
              <mxPoint x="240" y="522" />
            </Array>
          </mxGeometry>
        </mxCell>
        <mxCell id="bce6IL9_vLdNjxIvjYd0-38" value="" style="edgeStyle=orthogonalEdgeStyle;rounded=0;orthogonalLoop=1;jettySize=auto;html=1;" edge="1" parent="0Hoveio9KSXY4x-1HRcn-1" source="bce6IL9_vLdNjxIvjYd0-33" target="0Hoveio9KSXY4x-1HRcn-36">
          <mxGeometry relative="1" as="geometry" />
        </mxCell>
        <mxCell id="bce6IL9_vLdNjxIvjYd0-33" value="require answer, show what requirments aren&#39;t met," style="whiteSpace=wrap;html=1;" vertex="1" parent="0Hoveio9KSXY4x-1HRcn-1">
          <mxGeometry x="150" y="750" width="120" height="60" as="geometry" />
        </mxCell>
        <mxCell id="bce6IL9_vLdNjxIvjYd0-35" value="no" style="edgeStyle=orthogonalEdgeStyle;rounded=0;orthogonalLoop=1;jettySize=auto;html=1;entryX=0.383;entryY=1.033;entryDx=0;entryDy=0;entryPerimeter=0;" edge="1" parent="0Hoveio9KSXY4x-1HRcn-1" source="0Hoveio9KSXY4x-1HRcn-42" target="bce6IL9_vLdNjxIvjYd0-33">
          <mxGeometry relative="1" as="geometry" />
        </mxCell>
      </root>
    </mxGraphModel>
  </diagram>
  <diagram name="V2 (makes more sense)" id="n6Wm4xatbLt7hEbNFKrT">
    <mxGraphModel dx="1434" dy="956" grid="1" gridSize="10" guides="1" tooltips="1" connect="1" arrows="1" fold="1" page="1" pageScale="1" pageWidth="827" pageHeight="1169" math="0" shadow="0">
      <root>
        <mxCell id="0" />
        <mxCell id="1" parent="0" />
        <mxCell id="28RMrouGWsy9ppsm-xjJ-12" value="" style="edgeStyle=orthogonalEdgeStyle;rounded=0;orthogonalLoop=1;jettySize=auto;html=1;" parent="1" source="28RMrouGWsy9ppsm-xjJ-1" target="28RMrouGWsy9ppsm-xjJ-11" edge="1">
          <mxGeometry relative="1" as="geometry" />
        </mxCell>
        <mxCell id="28RMrouGWsy9ppsm-xjJ-1" value="Start" style="strokeWidth=2;html=1;shape=mxgraph.flowchart.start_1;whiteSpace=wrap;" parent="1" vertex="1">
          <mxGeometry x="10" y="10" width="100" height="60" as="geometry" />
        </mxCell>
        <mxCell id="qfqiavT_rfYKxe65icQH-37" style="edgeStyle=orthogonalEdgeStyle;rounded=0;orthogonalLoop=1;jettySize=auto;html=1;entryX=0;entryY=0.5;entryDx=0;entryDy=0;" parent="1" source="28RMrouGWsy9ppsm-xjJ-11" target="wf1ZQBuZ4TE2wuPAcpOi-1" edge="1">
          <mxGeometry relative="1" as="geometry">
            <Array as="points">
              <mxPoint x="470" y="10" />
            </Array>
          </mxGeometry>
        </mxCell>
        <mxCell id="28RMrouGWsy9ppsm-xjJ-11" value="button" style="shape=offPageConnector;whiteSpace=wrap;html=1;rotation=0;size=0.5;" parent="1" vertex="1">
          <mxGeometry x="180" width="80" height="80" as="geometry" />
        </mxCell>
        <mxCell id="qfqiavT_rfYKxe65icQH-44" value="yes" style="edgeStyle=orthogonalEdgeStyle;rounded=0;orthogonalLoop=1;jettySize=auto;html=1;entryX=0;entryY=0.5;entryDx=0;entryDy=0;" parent="1" source="wf1ZQBuZ4TE2wuPAcpOi-1" target="wf1ZQBuZ4TE2wuPAcpOi-5" edge="1">
          <mxGeometry relative="1" as="geometry" />
        </mxCell>
        <mxCell id="qfqiavT_rfYKxe65icQH-46" value="no" style="edgeStyle=orthogonalEdgeStyle;rounded=0;orthogonalLoop=1;jettySize=auto;html=1;" parent="1" source="wf1ZQBuZ4TE2wuPAcpOi-1" target="wf1ZQBuZ4TE2wuPAcpOi-9" edge="1">
          <mxGeometry relative="1" as="geometry" />
        </mxCell>
        <mxCell id="wf1ZQBuZ4TE2wuPAcpOi-1" value="clicked &quot;create passcode&quot;?" style="rhombus;whiteSpace=wrap;html=1;" parent="1" vertex="1">
          <mxGeometry x="470" width="100" height="100" as="geometry" />
        </mxCell>
        <mxCell id="wf1ZQBuZ4TE2wuPAcpOi-5" value="open menue for creation (with 2 fields)&lt;div&gt;&lt;br&gt;&lt;/div&gt;&lt;div&gt;1 for username (mentioning caveots)&lt;/div&gt;&lt;div&gt;1 for passcode (same)&lt;/div&gt;" style="whiteSpace=wrap;html=1;" parent="1" vertex="1">
          <mxGeometry x="560" y="90" width="120" height="100" as="geometry" />
        </mxCell>
        <mxCell id="wf1ZQBuZ4TE2wuPAcpOi-9" value="seperate code" style="shape=offPageConnector;whiteSpace=wrap;html=1;rotation=0;size=0.5;" parent="1" vertex="1">
          <mxGeometry x="610" y="10" width="80" height="80" as="geometry" />
        </mxCell>
        <mxCell id="qfqiavT_rfYKxe65icQH-34" style="edgeStyle=orthogonalEdgeStyle;rounded=0;orthogonalLoop=1;jettySize=auto;html=1;" parent="1" source="zt2LgW15el0GZPkOu7nI-4" target="qfqiavT_rfYKxe65icQH-6" edge="1">
          <mxGeometry relative="1" as="geometry" />
        </mxCell>
        <mxCell id="qfqiavT_rfYKxe65icQH-35" style="edgeStyle=orthogonalEdgeStyle;rounded=0;orthogonalLoop=1;jettySize=auto;html=1;" parent="1" source="zt2LgW15el0GZPkOu7nI-4" target="qfqiavT_rfYKxe65icQH-3" edge="1">
          <mxGeometry relative="1" as="geometry" />
        </mxCell>
        <mxCell id="zt2LgW15el0GZPkOu7nI-4" value="keep menue open, displaying unmet parts of requriments" style="whiteSpace=wrap;html=1;" parent="1" vertex="1">
          <mxGeometry x="50" y="130" width="120" height="80" as="geometry" />
        </mxCell>
        <mxCell id="qfqiavT_rfYKxe65icQH-38" value="no" style="edgeStyle=orthogonalEdgeStyle;rounded=0;orthogonalLoop=1;jettySize=auto;html=1;" parent="1" source="qfqiavT_rfYKxe65icQH-3" target="qfqiavT_rfYKxe65icQH-11" edge="1">
          <mxGeometry relative="1" as="geometry">
            <Array as="points">
              <mxPoint x="40" y="80" />
            </Array>
          </mxGeometry>
        </mxCell>
        <mxCell id="joMcoYjOBNjfnRrwqcNP-7" value="yes" style="edgeStyle=orthogonalEdgeStyle;rounded=0;orthogonalLoop=1;jettySize=auto;html=1;" parent="1" source="qfqiavT_rfYKxe65icQH-3" target="qfqiavT_rfYKxe65icQH-20" edge="1">
          <mxGeometry x="-0.3333" relative="1" as="geometry">
            <mxPoint as="offset" />
          </mxGeometry>
        </mxCell>
        <mxCell id="qfqiavT_rfYKxe65icQH-3" value="is the passcode 12 characters long?" style="rhombus;whiteSpace=wrap;html=1;" parent="1" vertex="1">
          <mxGeometry y="260" width="80" height="80" as="geometry" />
        </mxCell>
        <mxCell id="qfqiavT_rfYKxe65icQH-32" value="no" style="edgeStyle=orthogonalEdgeStyle;rounded=0;orthogonalLoop=1;jettySize=auto;html=1;entryX=0.25;entryY=1;entryDx=0;entryDy=0;" parent="1" source="qfqiavT_rfYKxe65icQH-6" target="qfqiavT_rfYKxe65icQH-11" edge="1">
          <mxGeometry relative="1" as="geometry" />
        </mxCell>
        <mxCell id="joMcoYjOBNjfnRrwqcNP-6" value="yes" style="edgeStyle=orthogonalEdgeStyle;rounded=0;orthogonalLoop=1;jettySize=auto;html=1;" parent="1" source="qfqiavT_rfYKxe65icQH-6" target="qfqiavT_rfYKxe65icQH-20" edge="1">
          <mxGeometry relative="1" as="geometry">
            <Array as="points">
              <mxPoint x="170" y="370" />
              <mxPoint x="40" y="370" />
            </Array>
          </mxGeometry>
        </mxCell>
        <mxCell id="qfqiavT_rfYKxe65icQH-6" value="is the username 8 characters long" style="rhombus;whiteSpace=wrap;html=1;" parent="1" vertex="1">
          <mxGeometry x="130" y="260" width="80" height="80" as="geometry" />
        </mxCell>
        <mxCell id="qfqiavT_rfYKxe65icQH-8" value="display error if button clicked? prevent clicking of button untill met? show missing requirments &lt;i&gt;and &lt;/i&gt;warn if clicked? show missing requirments and gray out?" style="shape=note;whiteSpace=wrap;html=1;backgroundOutline=1;fontColor=#000000;darkOpacity=0.05;fillColor=#FFF9B2;strokeColor=none;fillStyle=solid;direction=west;gradientDirection=north;gradientColor=#FFF2A1;shadow=1;size=20;pointerEvents=1;" parent="1" vertex="1">
          <mxGeometry x="320" y="180" width="140" height="160" as="geometry" />
        </mxCell>
        <mxCell id="qfqiavT_rfYKxe65icQH-31" value="" style="edgeStyle=orthogonalEdgeStyle;rounded=0;orthogonalLoop=1;jettySize=auto;html=1;" parent="1" source="qfqiavT_rfYKxe65icQH-11" target="zt2LgW15el0GZPkOu7nI-4" edge="1">
          <mxGeometry relative="1" as="geometry" />
        </mxCell>
        <mxCell id="qfqiavT_rfYKxe65icQH-11" value="display issues as red text beneath requirments (I.E. Username not put in, Username less than 8 characters, Username over 8 characters, ect)" style="whiteSpace=wrap;html=1;" parent="1" vertex="1">
          <mxGeometry x="270" y="40" width="160" height="110" as="geometry" />
        </mxCell>
        <mxCell id="joMcoYjOBNjfnRrwqcNP-4" value="yes" style="edgeStyle=orthogonalEdgeStyle;rounded=0;orthogonalLoop=1;jettySize=auto;html=1;" parent="1" source="qfqiavT_rfYKxe65icQH-20" target="joMcoYjOBNjfnRrwqcNP-1" edge="1">
          <mxGeometry relative="1" as="geometry" />
        </mxCell>
        <mxCell id="joMcoYjOBNjfnRrwqcNP-5" value="no" style="edgeStyle=orthogonalEdgeStyle;rounded=0;orthogonalLoop=1;jettySize=auto;html=1;entryX=0.25;entryY=1;entryDx=0;entryDy=0;" parent="1" source="qfqiavT_rfYKxe65icQH-20" target="qfqiavT_rfYKxe65icQH-11" edge="1">
          <mxGeometry relative="1" as="geometry">
            <Array as="points">
              <mxPoint x="100" y="440" />
              <mxPoint x="100" y="380" />
              <mxPoint x="180" y="380" />
              <mxPoint x="180" y="360" />
              <mxPoint x="220" y="360" />
              <mxPoint x="220" y="300" />
              <mxPoint x="310" y="300" />
            </Array>
            <mxPoint as="offset" />
          </mxGeometry>
        </mxCell>
        <mxCell id="qfqiavT_rfYKxe65icQH-20" value="are both &quot;yes&quot;?" style="rhombus;whiteSpace=wrap;html=1;" parent="1" vertex="1">
          <mxGeometry y="400" width="80" height="80" as="geometry" />
        </mxCell>
        <mxCell id="qfqiavT_rfYKxe65icQH-43" value="" style="shape=link;html=1;rounded=0;entryX=0.75;entryY=1;entryDx=0;entryDy=0;" parent="1" source="qfqiavT_rfYKxe65icQH-8" target="qfqiavT_rfYKxe65icQH-11" edge="1">
          <mxGeometry width="100" relative="1" as="geometry">
            <mxPoint x="370" y="310" as="sourcePoint" />
            <mxPoint x="470" y="310" as="targetPoint" />
          </mxGeometry>
        </mxCell>
        <mxCell id="qfqiavT_rfYKxe65icQH-45" style="edgeStyle=orthogonalEdgeStyle;rounded=0;orthogonalLoop=1;jettySize=auto;html=1;entryX=0.813;entryY=0.991;entryDx=0;entryDy=0;entryPerimeter=0;" parent="1" source="wf1ZQBuZ4TE2wuPAcpOi-5" target="qfqiavT_rfYKxe65icQH-11" edge="1">
          <mxGeometry relative="1" as="geometry">
            <Array as="points">
              <mxPoint x="400" y="170" />
            </Array>
          </mxGeometry>
        </mxCell>
        <mxCell id="joMcoYjOBNjfnRrwqcNP-9" value="" style="edgeStyle=orthogonalEdgeStyle;rounded=0;orthogonalLoop=1;jettySize=auto;html=1;" parent="1" source="joMcoYjOBNjfnRrwqcNP-1" target="joMcoYjOBNjfnRrwqcNP-8" edge="1">
          <mxGeometry relative="1" as="geometry" />
        </mxCell>
        <mxCell id="PEYWZIbnZrysc9Ly27i_-3" value="" style="edgeStyle=orthogonalEdgeStyle;rounded=0;orthogonalLoop=1;jettySize=auto;html=1;" parent="1" source="joMcoYjOBNjfnRrwqcNP-1" target="joMcoYjOBNjfnRrwqcNP-19" edge="1">
          <mxGeometry relative="1" as="geometry">
            <Array as="points">
              <mxPoint x="180" y="570" />
              <mxPoint x="180" y="570" />
            </Array>
          </mxGeometry>
        </mxCell>
        <mxCell id="joMcoYjOBNjfnRrwqcNP-1" value="save username and passcode in temporary location" style="whiteSpace=wrap;html=1;" parent="1" vertex="1">
          <mxGeometry y="540" width="120" height="60" as="geometry" />
        </mxCell>
        <mxCell id="PEYWZIbnZrysc9Ly27i_-4" value="" style="edgeStyle=orthogonalEdgeStyle;rounded=0;orthogonalLoop=1;jettySize=auto;html=1;" parent="1" source="joMcoYjOBNjfnRrwqcNP-8" target="joMcoYjOBNjfnRrwqcNP-22" edge="1">
          <mxGeometry relative="1" as="geometry" />
        </mxCell>
        <mxCell id="joMcoYjOBNjfnRrwqcNP-8" value="show dropdown for security question, and ask for choice" style="whiteSpace=wrap;html=1;" parent="1" vertex="1">
          <mxGeometry y="665" width="120" height="60" as="geometry" />
        </mxCell>
        <mxCell id="joMcoYjOBNjfnRrwqcNP-12" value="preset, where the questions are pre-made, such as &quot;first pets name&quot;, ect.&lt;div&gt;&lt;br&gt;&lt;/div&gt;&lt;div&gt;could also have it where the user types their own question, but it is more complex.&lt;/div&gt;" style="shape=note;whiteSpace=wrap;html=1;backgroundOutline=1;fontColor=#000000;darkOpacity=0.05;fillColor=#FFF9B2;strokeColor=none;fillStyle=solid;direction=west;gradientDirection=north;gradientColor=#FFF2A1;shadow=1;size=20;pointerEvents=1;" parent="1" vertex="1">
          <mxGeometry x="190" y="585" width="140" height="160" as="geometry" />
        </mxCell>
        <mxCell id="joMcoYjOBNjfnRrwqcNP-16" value="" style="shape=link;html=1;rounded=0;entryX=1.036;entryY=0.263;entryDx=0;entryDy=0;entryPerimeter=0;exitX=0.983;exitY=0.617;exitDx=0;exitDy=0;exitPerimeter=0;" parent="1" source="joMcoYjOBNjfnRrwqcNP-8" target="joMcoYjOBNjfnRrwqcNP-12" edge="1">
          <mxGeometry width="100" relative="1" as="geometry">
            <mxPoint x="40" y="760" as="sourcePoint" />
            <mxPoint x="140" y="760" as="targetPoint" />
          </mxGeometry>
        </mxCell>
        <mxCell id="PEYWZIbnZrysc9Ly27i_-6" value="" style="edgeStyle=orthogonalEdgeStyle;rounded=0;orthogonalLoop=1;jettySize=auto;html=1;" parent="1" source="joMcoYjOBNjfnRrwqcNP-19" target="PEYWZIbnZrysc9Ly27i_-5" edge="1">
          <mxGeometry relative="1" as="geometry">
            <Array as="points">
              <mxPoint x="350" y="530" />
              <mxPoint x="350" y="530" />
            </Array>
          </mxGeometry>
        </mxCell>
        <mxCell id="joMcoYjOBNjfnRrwqcNP-19" value="input answer" style="whiteSpace=wrap;html=1;" parent="1" vertex="1">
          <mxGeometry x="200" y="525" width="120" height="60" as="geometry" />
        </mxCell>
        <mxCell id="PEYWZIbnZrysc9Ly27i_-14" value="yes" style="edgeStyle=orthogonalEdgeStyle;rounded=0;orthogonalLoop=1;jettySize=auto;html=1;" parent="1" source="joMcoYjOBNjfnRrwqcNP-22" target="PEYWZIbnZrysc9Ly27i_-12" edge="1">
          <mxGeometry relative="1" as="geometry" />
        </mxCell>
        <mxCell id="PEYWZIbnZrysc9Ly27i_-18" value="no" style="edgeStyle=orthogonalEdgeStyle;rounded=0;orthogonalLoop=1;jettySize=auto;html=1;entryX=1;entryY=0.75;entryDx=0;entryDy=0;" parent="1" source="joMcoYjOBNjfnRrwqcNP-22" target="joMcoYjOBNjfnRrwqcNP-19" edge="1">
          <mxGeometry relative="1" as="geometry">
            <Array as="points">
              <mxPoint x="350" y="809" />
              <mxPoint x="350" y="555" />
              <mxPoint x="320" y="555" />
            </Array>
          </mxGeometry>
        </mxCell>
        <mxCell id="joMcoYjOBNjfnRrwqcNP-22" value="has a question been selected" style="rhombus;whiteSpace=wrap;html=1;" parent="1" vertex="1">
          <mxGeometry y="749" width="140" height="120" as="geometry" />
        </mxCell>
        <mxCell id="PEYWZIbnZrysc9Ly27i_-19" value="no" style="edgeStyle=orthogonalEdgeStyle;rounded=0;orthogonalLoop=1;jettySize=auto;html=1;entryX=1;entryY=0.75;entryDx=0;entryDy=0;" parent="1" source="PEYWZIbnZrysc9Ly27i_-5" target="joMcoYjOBNjfnRrwqcNP-19" edge="1">
          <mxGeometry relative="1" as="geometry">
            <Array as="points">
              <mxPoint x="320" y="540" />
            </Array>
          </mxGeometry>
        </mxCell>
        <mxCell id="PEYWZIbnZrysc9Ly27i_-24" value="yes" style="edgeStyle=orthogonalEdgeStyle;rounded=0;orthogonalLoop=1;jettySize=auto;html=1;" parent="1" source="PEYWZIbnZrysc9Ly27i_-5" target="PEYWZIbnZrysc9Ly27i_-12" edge="1">
          <mxGeometry relative="1" as="geometry">
            <Array as="points">
              <mxPoint x="460" y="850" />
              <mxPoint x="180" y="850" />
              <mxPoint x="180" y="980" />
            </Array>
          </mxGeometry>
        </mxCell>
        <mxCell id="PEYWZIbnZrysc9Ly27i_-5" value="is answer greater than 4 characters" style="rhombus;whiteSpace=wrap;html=1;" parent="1" vertex="1">
          <mxGeometry x="420" y="515" width="90" height="95" as="geometry" />
        </mxCell>
        <mxCell id="PEYWZIbnZrysc9Ly27i_-8" style="edgeStyle=orthogonalEdgeStyle;rounded=0;orthogonalLoop=1;jettySize=auto;html=1;entryX=1;entryY=0.25;entryDx=0;entryDy=0;" parent="1" source="PEYWZIbnZrysc9Ly27i_-7" target="joMcoYjOBNjfnRrwqcNP-1" edge="1">
          <mxGeometry relative="1" as="geometry" />
        </mxCell>
        <mxCell id="PEYWZIbnZrysc9Ly27i_-7" value="show error of either &quot;question and answer&quot;" style="whiteSpace=wrap;html=1;" parent="1" vertex="1">
          <mxGeometry x="200" y="440" width="120" height="60" as="geometry" />
        </mxCell>
        <mxCell id="PEYWZIbnZrysc9Ly27i_-9" value="same as previous one. Have text saying if done? gray out button? both? error if put in?" style="shape=note;whiteSpace=wrap;html=1;backgroundOutline=1;fontColor=#000000;darkOpacity=0.05;fillColor=#FFF9B2;strokeColor=none;fillStyle=solid;direction=west;gradientDirection=north;gradientColor=#FFF2A1;shadow=1;size=20;pointerEvents=1;" parent="1" vertex="1">
          <mxGeometry x="450" y="355" width="140" height="160" as="geometry" />
        </mxCell>
        <mxCell id="PEYWZIbnZrysc9Ly27i_-10" value="" style="shape=link;html=1;rounded=0;exitX=0.983;exitY=0.633;exitDx=0;exitDy=0;exitPerimeter=0;" parent="1" source="PEYWZIbnZrysc9Ly27i_-7" target="PEYWZIbnZrysc9Ly27i_-9" edge="1">
          <mxGeometry width="100" relative="1" as="geometry">
            <mxPoint x="347" y="479" as="sourcePoint" />
            <mxPoint x="414" y="480" as="targetPoint" />
          </mxGeometry>
        </mxCell>
        <mxCell id="PEYWZIbnZrysc9Ly27i_-25" value="no" style="edgeStyle=orthogonalEdgeStyle;rounded=0;orthogonalLoop=1;jettySize=auto;html=1;" parent="1" source="PEYWZIbnZrysc9Ly27i_-12" target="joMcoYjOBNjfnRrwqcNP-19" edge="1">
          <mxGeometry relative="1" as="geometry">
            <Array as="points">
              <mxPoint x="130" y="830" />
              <mxPoint x="370" y="830" />
              <mxPoint x="370" y="555" />
            </Array>
          </mxGeometry>
        </mxCell>
        <mxCell id="PEYWZIbnZrysc9Ly27i_-27" value="" style="edgeStyle=orthogonalEdgeStyle;rounded=0;orthogonalLoop=1;jettySize=auto;html=1;" parent="1" source="PEYWZIbnZrysc9Ly27i_-12" target="PEYWZIbnZrysc9Ly27i_-26" edge="1">
          <mxGeometry relative="1" as="geometry" />
        </mxCell>
        <mxCell id="PEYWZIbnZrysc9Ly27i_-12" value="are both yes?" style="rhombus;whiteSpace=wrap;html=1;" parent="1" vertex="1">
          <mxGeometry y="920" width="140" height="120" as="geometry" />
        </mxCell>
        <mxCell id="-yS2M-5v1Bdj5HbMTf9Q-5" value="" style="edgeStyle=orthogonalEdgeStyle;rounded=0;orthogonalLoop=1;jettySize=auto;html=1;" parent="1" source="PEYWZIbnZrysc9Ly27i_-26" target="-yS2M-5v1Bdj5HbMTf9Q-4" edge="1">
          <mxGeometry relative="1" as="geometry" />
        </mxCell>
        <mxCell id="PEYWZIbnZrysc9Ly27i_-26" value="add the answer and question to the list after the username and passcode" style="whiteSpace=wrap;html=1;" parent="1" vertex="1">
          <mxGeometry y="1090" width="120" height="79" as="geometry" />
        </mxCell>
        <mxCell id="-yS2M-5v1Bdj5HbMTf9Q-2" value="" style="edgeStyle=orthogonalEdgeStyle;rounded=0;orthogonalLoop=1;jettySize=auto;html=1;" parent="1" source="PEYWZIbnZrysc9Ly27i_-30" target="-yS2M-5v1Bdj5HbMTf9Q-1" edge="1">
          <mxGeometry relative="1" as="geometry" />
        </mxCell>
        <mxCell id="PEYWZIbnZrysc9Ly27i_-30" value="account" style="shape=offPageConnector;whiteSpace=wrap;html=1;rotation=0;size=0.5;" parent="1" vertex="1">
          <mxGeometry x="310" y="1089" width="80" height="80" as="geometry" />
        </mxCell>
        <mxCell id="-yS2M-5v1Bdj5HbMTf9Q-11" value="" style="edgeStyle=orthogonalEdgeStyle;rounded=0;orthogonalLoop=1;jettySize=auto;html=1;" parent="1" source="-yS2M-5v1Bdj5HbMTf9Q-1" target="-yS2M-5v1Bdj5HbMTf9Q-10" edge="1">
          <mxGeometry relative="1" as="geometry" />
        </mxCell>
        <mxCell id="-yS2M-5v1Bdj5HbMTf9Q-1" value="take the generated ID to link the acount to the database" style="whiteSpace=wrap;html=1;" parent="1" vertex="1">
          <mxGeometry x="430" y="1109" width="120" height="60" as="geometry" />
        </mxCell>
        <mxCell id="-yS2M-5v1Bdj5HbMTf9Q-6" value="" style="edgeStyle=orthogonalEdgeStyle;rounded=0;orthogonalLoop=1;jettySize=auto;html=1;" parent="1" source="-yS2M-5v1Bdj5HbMTf9Q-4" target="PEYWZIbnZrysc9Ly27i_-30" edge="1">
          <mxGeometry relative="1" as="geometry" />
        </mxCell>
        <mxCell id="-yS2M-5v1Bdj5HbMTf9Q-4" value="save the list online on the database" style="whiteSpace=wrap;html=1;" parent="1" vertex="1">
          <mxGeometry x="160" y="1109" width="120" height="60" as="geometry" />
        </mxCell>
        <mxCell id="-yS2M-5v1Bdj5HbMTf9Q-7" value="the ID is used so that when loged in, the passcode can refference the ID, which refferences the account. Used in login code" style="shape=note;whiteSpace=wrap;html=1;backgroundOutline=1;fontColor=#000000;darkOpacity=0.05;fillColor=#FFF9B2;strokeColor=none;fillStyle=solid;direction=west;gradientDirection=north;gradientColor=#FFF2A1;shadow=1;size=20;pointerEvents=1;" parent="1" vertex="1">
          <mxGeometry x="414" y="920" width="140" height="160" as="geometry" />
        </mxCell>
        <mxCell id="-yS2M-5v1Bdj5HbMTf9Q-9" value="" style="shape=link;html=1;rounded=0;entryX=0.558;entryY=-0.017;entryDx=0;entryDy=0;entryPerimeter=0;exitX=0;exitY=0;exitDx=60;exitDy=0;exitPerimeter=0;" parent="1" source="-yS2M-5v1Bdj5HbMTf9Q-7" target="-yS2M-5v1Bdj5HbMTf9Q-1" edge="1">
          <mxGeometry width="100" relative="1" as="geometry">
            <mxPoint x="480" y="1060" as="sourcePoint" />
            <mxPoint x="547" y="1061" as="targetPoint" />
          </mxGeometry>
        </mxCell>
        <mxCell id="-yS2M-5v1Bdj5HbMTf9Q-10" value="" style="shape=ellipse;html=1;dashed=0;whiteSpace=wrap;aspect=fixed;strokeWidth=5;perimeter=ellipsePerimeter;" parent="1" vertex="1">
          <mxGeometry x="560" y="1020" width="60" height="60" as="geometry" />
        </mxCell>
      </root>
    </mxGraphModel>
  </diagram>
  <diagram id="E82GwVfvQp3bfOiPzMAy" name="Plan to meet requirments">
    <mxGraphModel dx="1434" dy="956" grid="1" gridSize="10" guides="1" tooltips="1" connect="1" arrows="1" fold="1" page="1" pageScale="1" pageWidth="850" pageHeight="1100" math="0" shadow="0">
      <root>
        <mxCell id="0" />
        <mxCell id="1" parent="0" />
        <mxCell id="eEqOQuRe1wAahOy5Qmgp-1" value="1. ask to create a username&#xa;    1a. when they submit it, check if it&#39;s equal to 8 characters in length, then allow or require remake acordingly&#xa;2. ask to create a passcode&#xa;    2a. do the same thing, but this time for 12 characters&#xa;3. ask to for security question (either typed or from pre-sets, assuming normal &quot;preset&quot; one, if not, re-design shouldn&#39;t be too hard, as just storing 1 more piece of data)&#xa;    3a. check that the length is at least 5 characters. If so, allow, otherwise, re-do&#xa;&#xa;&#xa;4. store that data elsewhere in some sort of database (the database itself is seperate, but the system to transfer it to said database is here)&#xa;5. go to the newley created account&#xa;    assign that acount to the passcode, so when the login program is used, it will be able to go to the correct account (recommendation: use a number. As this is useless without the code, something simple like &quot;each new user gets a number incramenting by 1. So the first account is &quot;1&quot;, the second &quot;2&quot;, the 10,981 acount is 10,981. any URL&#39;s would be something like &quot;profile/number&quot;. (if website, this is for logging in. If desktop program, that URL wouldn&#39;t be public, but still exist in the &quot;deep web&quot;, for refferencing when signed in, as it&#39;s always stored online." style="text;whiteSpace=wrap;" parent="1" vertex="1">
          <mxGeometry x="100" y="90" width="560" height="300" as="geometry" />
        </mxCell>
      </root>
    </mxGraphModel>
  </diagram>
  <diagram id="0XYMVmbMsd37iYaNAB9R" name="Other Parts">
    <mxGraphModel dx="1434" dy="956" grid="1" gridSize="10" guides="1" tooltips="1" connect="1" arrows="1" fold="1" page="1" pageScale="1" pageWidth="850" pageHeight="1100" math="0" shadow="0">
      <root>
        <mxCell id="0" />
        <mxCell id="1" parent="0" />
        <mxCell id="_EWdydDyp9YB8XfmdIAj-3" value="" style="edgeStyle=orthogonalEdgeStyle;rounded=0;orthogonalLoop=1;jettySize=auto;html=1;" parent="1" source="_EWdydDyp9YB8XfmdIAj-1" target="_EWdydDyp9YB8XfmdIAj-2" edge="1">
          <mxGeometry relative="1" as="geometry" />
        </mxCell>
        <mxCell id="_EWdydDyp9YB8XfmdIAj-1" value="button" style="shape=offPageConnector;whiteSpace=wrap;html=1;" parent="1" vertex="1">
          <mxGeometry width="80" height="80" as="geometry" />
        </mxCell>
        <mxCell id="_EWdydDyp9YB8XfmdIAj-5" value="" style="edgeStyle=orthogonalEdgeStyle;rounded=0;orthogonalLoop=1;jettySize=auto;html=1;" parent="1" source="_EWdydDyp9YB8XfmdIAj-2" target="_EWdydDyp9YB8XfmdIAj-4" edge="1">
          <mxGeometry relative="1" as="geometry" />
        </mxCell>
        <mxCell id="_EWdydDyp9YB8XfmdIAj-2" value="the create passcode button. Perhaps seperate (bellow) login? when login, opens &quot;login or create passcode&quot;? small text for &quot;don&#39;t have account, make one&quot;? combination?" style="whiteSpace=wrap;html=1;" parent="1" vertex="1">
          <mxGeometry y="170" width="250" height="70" as="geometry" />
        </mxCell>
        <mxCell id="_EWdydDyp9YB8XfmdIAj-4" value="button" style="shape=offPageConnector;whiteSpace=wrap;html=1;" parent="1" vertex="1">
          <mxGeometry y="270" width="80" height="80" as="geometry" />
        </mxCell>
        <mxCell id="1aWUAL3dBHyZJ0ddrAmt-1" value="" style="edgeStyle=orthogonalEdgeStyle;rounded=0;orthogonalLoop=1;jettySize=auto;html=1;" parent="1" source="fYyX2I_YX4dLdyuBP7AC-1" target="fYyX2I_YX4dLdyuBP7AC-2" edge="1">
          <mxGeometry relative="1" as="geometry" />
        </mxCell>
        <mxCell id="fYyX2I_YX4dLdyuBP7AC-1" value="seperate code" style="shape=offPageConnector;whiteSpace=wrap;html=1;rotation=0;size=0.5;" parent="1" vertex="1">
          <mxGeometry x="770" width="80" height="80" as="geometry" />
        </mxCell>
        <mxCell id="1aWUAL3dBHyZJ0ddrAmt-6" value="" style="edgeStyle=orthogonalEdgeStyle;rounded=0;orthogonalLoop=1;jettySize=auto;html=1;" parent="1" source="fYyX2I_YX4dLdyuBP7AC-2" target="1aWUAL3dBHyZJ0ddrAmt-5" edge="1">
          <mxGeometry relative="1" as="geometry" />
        </mxCell>
        <mxCell id="fYyX2I_YX4dLdyuBP7AC-2" value="end this system" style="shape=ellipse;html=1;dashed=0;whiteSpace=wrap;aspect=fixed;strokeWidth=5;perimeter=ellipsePerimeter;" parent="1" vertex="1">
          <mxGeometry x="780" y="100" width="60" height="60" as="geometry" />
        </mxCell>
        <mxCell id="1aWUAL3dBHyZJ0ddrAmt-2" value="this program (on this current flowchart) will stop, and a seperate one with the next stuff (say, going from acount to login)&lt;div&gt;&lt;br&gt;&lt;/div&gt;&lt;div&gt;stops this program as well&lt;/div&gt;" style="shape=note;whiteSpace=wrap;html=1;backgroundOutline=1;fontColor=#000000;darkOpacity=0.05;fillColor=#FFF9B2;strokeColor=none;fillStyle=solid;direction=west;gradientDirection=north;gradientColor=#FFF2A1;shadow=1;size=20;pointerEvents=1;" parent="1" vertex="1">
          <mxGeometry x="620" y="10" width="140" height="160" as="geometry" />
        </mxCell>
        <mxCell id="1aWUAL3dBHyZJ0ddrAmt-5" value="code that does something else" style="whiteSpace=wrap;html=1;dashed=0;strokeWidth=5;strokeColor=default;" parent="1" vertex="1">
          <mxGeometry x="720" y="200" width="120" height="60" as="geometry" />
        </mxCell>
        <mxCell id="hiCVW3fA8mH8J86sL5sY-4" value="" style="edgeStyle=orthogonalEdgeStyle;rounded=0;orthogonalLoop=1;jettySize=auto;html=1;" parent="1" source="hiCVW3fA8mH8J86sL5sY-1" target="hiCVW3fA8mH8J86sL5sY-3" edge="1">
          <mxGeometry relative="1" as="geometry" />
        </mxCell>
        <mxCell id="hiCVW3fA8mH8J86sL5sY-1" value="account" style="shape=offPageConnector;whiteSpace=wrap;html=1;rotation=0;size=0.5;" parent="1" vertex="1">
          <mxGeometry x="230" y="10" width="80" height="80" as="geometry" />
        </mxCell>
        <mxCell id="hiCVW3fA8mH8J86sL5sY-2" value="account" style="shape=offPageConnector;whiteSpace=wrap;html=1;rotation=0;size=0.5;" parent="1" vertex="1">
          <mxGeometry x="270" y="270" width="80" height="80" as="geometry" />
        </mxCell>
        <mxCell id="hiCVW3fA8mH8J86sL5sY-5" value="" style="edgeStyle=orthogonalEdgeStyle;rounded=0;orthogonalLoop=1;jettySize=auto;html=1;" parent="1" source="hiCVW3fA8mH8J86sL5sY-3" target="hiCVW3fA8mH8J86sL5sY-2" edge="1">
          <mxGeometry relative="1" as="geometry" />
        </mxCell>
        <mxCell id="hiCVW3fA8mH8J86sL5sY-3" value="the code for making the account, assigned an ID" style="whiteSpace=wrap;html=1;" parent="1" vertex="1">
          <mxGeometry x="270" y="170" width="250" height="70" as="geometry" />
        </mxCell>
      </root>
    </mxGraphModel>
  </diagram>
</mxfile>
